<svg xmlns="http://www.w3.org/2000/svg" version="1.1" width="64" height="64"><svg width="64" height="64" viewBox="0 0 64 64" fill="none" xmlns="http://www.w3.org/2000/svg">
<rect width="64" height="64" fill="#FFC947"/>
<path d="M52 7H12C10.4087 7 8.88258 7.63214 7.75736 8.75736C6.63214 9.88258 6 11.4087 6 13V51C6 52.5913 6.63214 54.1174 7.75736 55.2426C8.88258 56.3679 10.4087 57 12 57H52C53.5913 57 55.1174 56.3679 56.2426 55.2426C57.3679 54.1174 58 52.5913 58 51V13C58 11.4087 57.3679 9.88258 56.2426 8.75736C55.1174 7.63214 53.5913 7 52 7ZM54 51C54 51.5304 53.7893 52.0391 53.4142 52.4142C53.0391 52.7893 52.5304 53 52 53H12C11.4696 53 10.9609 52.7893 10.5858 52.4142C10.2107 52.0391 10 51.5304 10 51V13C10 12.4696 10.2107 11.9609 10.5858 11.5858C10.9609 11.2107 11.4696 11 12 11H52C52.5304 11 53.0391 11.2107 53.4142 11.5858C53.7893 11.9609 54 12.4696 54 13V51Z" fill="black"/>
<path d="M45 29C45.5304 29 46.0391 28.7893 46.4142 28.4142C46.7893 28.0391 47 27.5304 47 27C47 26.4696 46.7893 25.9609 46.4142 25.5858C46.0391 25.2107 45.5304 25 45 25H22.83L25.41 22.41C25.7377 22.0274 25.9089 21.5352 25.8894 21.0319C25.87 20.5285 25.6613 20.0511 25.3051 19.6949C24.9489 19.3387 24.4715 19.13 23.9681 19.1106C23.4648 19.0911 22.9726 19.2623 22.59 19.59L16.59 25.59C16.3091 25.869 16.1174 26.2251 16.0391 26.6132C15.9607 27.0013 15.9993 27.4039 16.15 27.77C16.3022 28.1349 16.5592 28.4466 16.8885 28.6655C17.2178 28.8844 17.6046 29.0008 18 29H45Z" fill="black"/>
<path d="M47 36H20C19.4696 36 18.9609 36.2107 18.5858 36.5858C18.2107 36.9609 18 37.4696 18 38C18 38.5304 18.2107 39.0391 18.5858 39.4142C18.9609 39.7893 19.4696 40 20 40H42.17L39.59 42.59C39.3806 42.7693 39.2106 42.9899 39.0905 43.2381C38.9705 43.4862 38.903 43.7565 38.8924 44.0319C38.8818 44.3073 38.9282 44.582 39.0287 44.8386C39.1293 45.0953 39.2818 45.3284 39.4767 45.5233C39.6716 45.7182 39.9047 45.8707 40.1614 45.9713C40.418 46.0718 40.6927 46.1182 40.9681 46.1076C41.2435 46.097 41.5138 46.0295 41.7619 45.9095C42.0101 45.7894 42.2307 45.6194 42.41 45.41L48.41 39.41C48.6909 39.131 48.8826 38.7749 48.9609 38.3868C49.0393 37.9987 49.0007 37.5961 48.85 37.23C48.6978 36.8651 48.4408 36.5534 48.1115 36.3345C47.7822 36.1156 47.3954 35.9992 47 36Z" fill="black"/>
</svg><style>@media (prefers-color-scheme: light) { :root { filter: none; } }
</style></svg>